<svg xmlns="http://www.w3.org/2000/svg" xmlns:xlink="http://www.w3.org/1999/xlink" version="1.2" baseProfile="tiny" x="0px" y="0px" viewBox="0 0 64 80" xml:space="preserve"><metadata><?xpacket begin="&#65279;" id="W5M0MpCehiHzreSzNTczkc9d"?><x:xmpmeta xmlns:x="adobe:ns:meta/" x:xmptk="Adobe XMP Core 5.3-c011 66.145661, 2012/02/06-14:56:27        "/><?xpacket end="w"?></metadata><g><g><path d="M56.534,44.115C55.836,44.482,54.588,45,54,45h-2v-1h-2v1H40v-1h-2v1h-2c-0.588,0-1.836-0.518-2.534-0.885    c-0.488-0.256-1.092-0.069-1.351,0.419c-0.257,0.488-0.07,1.093,0.418,1.351C32.887,46.07,34.713,47,36,47h18    c1.287,0,3.113-0.93,3.467-1.115c0.488-0.258,0.675-0.862,0.418-1.351C57.627,44.046,57.022,43.859,56.534,44.115z"/><rect x="40" y="32" width="4" height="10"/><path d="M5.8,26.4C5.611,26.148,5.314,26,5,26H2.571c-0.336,0-0.649,0.169-0.835,0.449c-0.185,0.281-0.217,0.636-0.084,0.944    L3.627,32H10L5.8,26.4z"/><path d="M63,18H42.6c0-0.553-0.447-1-1-1s-1,0.447-1,1H20c-0.553,0-1,0.447-1,1s0.447,1,1,1h20.6v2h-2    c-1.1,0-2.334,0.836-2.742,1.857L35.801,24h11.599l-0.057-0.143C46.935,22.836,45.7,22,44.6,22h-2v-2H63c0.553,0,1-0.447,1-1    S63.553,18,63,18z"/><path d="M61.991,33c-0.001-0.26-0.093-0.516-0.284-0.707l-4-4c-0.109-0.109-0.243-0.192-0.391-0.241l-6-2    C51.214,26.018,51.107,26,51,26h-1v5l2,2H61.991z"/><rect x="32" y="32" width="2" height="4"/><path d="M30,36v-4h-5c-0.552,0-1,0.448-1,1v2c0,0.552,0.448,1,1,1H30z"/><path d="M52,35c-0.53,0-1.039-0.211-1.414-0.586l-2-2C48.211,32.039,48,31.53,48,31v-5H33c-0.288,0-0.563,0.124-0.753,0.342    L29.046,30H35c0.553,0,1,0.447,1,1v6c0,0.553-0.447,1-1,1H25c-1.654,0-3-1.346-3-3v-1H5v1h0.004c0,0.153,0.031,0.307,0.102,0.447    C5.239,35.715,8.491,42,18,42h20V31c0-0.553,0.447-1,1-1h6c0.553,0,1,0.447,1,1v11h9c1.43,0,2.629-1.005,2.928-2.346l3.52-1.76    C61.786,37.725,62,37.379,62,37v-2.001c-0.003,0-0.006,0.001-0.009,0.001H52z"/><path d="M11.707,25.707c0.391-0.391,0.391-1.023,0-1.414s-1.023-0.391-1.414,0l-2.042,2.042l1.212,1.616L11.707,25.707z"/><path d="M1.792,32.794l-1.499,1.499c-0.391,0.391-0.391,1.023,0,1.414C0.488,35.902,0.744,36,1,36s0.512-0.098,0.707-0.293    l1.734-1.734C2.721,33.904,2.083,33.467,1.792,32.794z"/></g></g><text x="0" y="79" fill="#000000" font-size="5px" font-weight="bold" font-family="'Helvetica Neue', Helvetica, Arial-Unicode, Arial, Sans-serif">Created by Izwar Muis</text><text x="0" y="84" fill="#000000" font-size="5px" font-weight="bold" font-family="'Helvetica Neue', Helvetica, Arial-Unicode, Arial, Sans-serif">from the Noun Project</text></svg>