<svg xmlns="http://www.w3.org/2000/svg" data-name="Layer 1" viewBox="0 0 64 80" x="0px" y="0px"><title>bullet_3</title><path d="M44.73,59.46a2,2,0,0,1-1.42-.59L41.9,57.46a2,2,0,0,1,0-2.83L54.63,41.9a2.05,2.05,0,0,1,2.83,0l1.41,1.41a2,2,0,0,1,0,2.83h0L46.14,58.87a2,2,0,0,1-1.41.59ZM56,43.31,43.31,56l1.42,1.42L57.46,44.73Zm2.12,2.13h0Z"/><path d="M22.81,28.05a1,1,0,0,1-.71-.29l-4.24-4.25a.7.7,0,0,1-.15-.19l-6.37-10.6a1,1,0,0,1,1.38-1.38l10.6,6.37a.7.7,0,0,1,.19.15l4.25,4.24a1,1,0,0,1,0,1.41l-4.25,4.25A1,1,0,0,1,22.81,28.05Z"/><polygon points="19.36 22.19 22.81 25.64 25.64 22.81 22.19 19.36 15.12 15.12 19.36 22.19"/><path d="M24.22,32.29l-.23,0a1,1,0,0,1-.72-.66l-1.41-4.24a1,1,0,0,1,.24-1l4.24-4.24a1,1,0,0,1,1-.24l4.24,1.41A1,1,0,0,1,32,24.93L24.93,32A1,1,0,0,1,24.22,32.29Zm-.27-5,.71,2.12,4.78-4.78L27.32,24Z"/><path d="M29.88,38a1,1,0,0,1-.71-.29L23.51,32a1,1,0,0,1-.29-.71,1,1,0,0,1,.29-.7l7.08-7.08a1,1,0,0,1,1.41,0l5.66,5.66a1,1,0,0,1,.29.71,1.05,1.05,0,0,1-.29.71l-7.07,7.07A1,1,0,0,1,29.88,38Zm-4.24-6.66,4.24,4.25,5.66-5.66-4.25-4.24Z"/><path d="M31.29,42.19l-.23,0a1,1,0,0,1-.72-.66l-1.41-4.24a1,1,0,0,1,.24-1l7.07-7.07a1,1,0,0,1,1-.24l4.24,1.41A1,1,0,0,1,41.9,32L32,41.9A1,1,0,0,1,31.29,42.19Zm-.27-5,.71,2.12,7.61-7.61L37.22,31Z"/><path d="M44,54.92h0a1,1,0,0,1-.71-.29L30.59,41.9a1,1,0,0,1,0-1.41l9.9-9.9a1,1,0,0,1,1.41,0L54.63,43.31a1,1,0,0,1,0,1.42l-9.9,9.9A1,1,0,0,1,44,54.92ZM32.71,41.19,44,52.51,52.51,44,41.19,32.71Z"/><text x="0" y="79" fill="#000000" font-size="5px" font-weight="bold" font-family="'Helvetica Neue', Helvetica, Arial-Unicode, Arial, Sans-serif">Created by Ivanda arief budiarto</text><text x="0" y="84" fill="#000000" font-size="5px" font-weight="bold" font-family="'Helvetica Neue', Helvetica, Arial-Unicode, Arial, Sans-serif">from the Noun Project</text></svg>