<svg xmlns="http://www.w3.org/2000/svg" version="1.1" viewBox="-5.0 -10.0 110.0 135.0">
 <path d="m50.906 69.348c-0.87109-0.76172-2.0781-1.1094-3.2188-0.96484-0.71484-2.25-2.6836-4.0898-4.9961-4.5977 0.21484-2.2422-0.83203-4.5938-2.6914-5.8828-1.5664-1.0859-3.6367-1.375-5.4648-0.85156-0.007812-1.9492-1.0078-3.8945-2.6719-4.9414-2.1523-1.3516-5.1719-1.0586-7.0195 0.6875-1.8516 1.7461-2.3164 4.7422-1.0859 6.9688 0.23047 0.42188 0.76172 0.57422 1.1797 0.33984 0.42188-0.23047 0.57422-0.76172 0.33984-1.1797-0.84375-1.5312-0.51172-3.6719 0.76172-4.8711 1.2695-1.1992 3.4258-1.4102 4.9062-0.48047 1.4805 0.92969 2.2227 2.9648 1.6914 4.6289-0.10938 0.34766 0.007812 0.72656 0.29297 0.94922 0.28516 0.22266 0.68359 0.24219 0.99219 0.050781 1.5234-0.95312 3.6172-0.90625 5.0938 0.12109 1.3633 0.94531 2.1289 2.6758 1.9531 4.3242-2.2383 0.13672-4.418 1.4219-5.5312 3.3789-0.23828 0.41797-0.089844 0.94531 0.32812 1.1836 0.41797 0.23828 0.94531 0.089843 1.1836-0.32813 1.0117-1.7852 3.207-2.8086 5.2188-2.4414 2.0156 0.36719 3.7109 2.1016 4.0273 4.125 0.039063 0.26172 0.19922 0.48828 0.42969 0.62109 0.23047 0.12891 0.50781 0.14844 0.75391 0.050781 0.77734-0.3125 1.7617-0.14844 2.3906 0.40625 0.46484 0.41016 0.74609 1.0391 0.77734 1.668h-12.738c-0.48047 0-0.86719 0.39062-0.86719 0.86719 0 0.47656 0.39062 0.86719 0.86719 0.86719h13.516c0.39844 0 0.73828-0.26562 0.83984-0.64844 0.375-1.4414-0.125-3.0742-1.2422-4.0586z"/>
 <path d="m29.965 73.191h-20.637c0.058594-0.94141 0.50781-1.875 1.2266-2.4766 0.90625-0.75391 2.2578-0.98828 3.3633-0.58203 0.28125 0.10156 0.59375 0.054688 0.82812-0.12891 0.23828-0.18359 0.35938-0.47266 0.32812-0.76953-0.20312-2.0234 1.1484-4.1055 3.0781-4.75 1.9258-0.64062 4.2617 0.21875 5.3086 1.9648 0.24609 0.41016 0.78125 0.54297 1.1914 0.29688s0.54297-0.78125 0.29688-1.1914c-1.4492-2.4062-4.6758-3.6016-7.3438-2.7148-2.293 0.76172-4 3.0039-4.2539 5.3984-1.3867-0.15234-2.832 0.25391-3.9141 1.1484-1.3867 1.1523-2.0898 3.043-1.7891 4.8242 0.070312 0.41797 0.43359 0.72266 0.85547 0.72266h21.457c0.48047 0 0.86719-0.39062 0.86719-0.86719 0-0.47656-0.39062-0.86719-0.86719-0.86719z"/>
 <path d="m92.031 46.734c-0.082031-0.21094-0.17969-0.41406-0.28516-0.60547-1.1953-2.2148-3.8398-3.4883-6.3281-3.25 0.17188-1.1641-0.074219-2.3906-0.73047-3.375-0.98438-1.4688-2.8242-2.3008-4.5742-2.0625-0.47266 0.0625-0.80859 0.5-0.74219 0.97656 0.0625 0.47266 0.5 0.80859 0.97656 0.74219 1.0977-0.14844 2.2852 0.39062 2.8984 1.3086 0.61328 0.91797 0.65625 2.2266 0.10156 3.1797-0.1875 0.32031-0.14844 0.72656 0.097656 1.0078 0.24219 0.28125 0.64063 0.375 0.98438 0.23438 2.0742-0.85156 4.7266 0.097656 5.793 2.0664 0.074219 0.13672 0.14062 0.27734 0.19531 0.42188 0.46484 1.1641 0.30859 2.4453-0.42188 3.5234-0.79688 1.1758-2.1133 1.875-3.5195 1.875h-21.027c-0.48047 0-0.86719 0.39062-0.86719 0.86719 0 0.47656 0.39062 0.86719 0.86719 0.86719h21.027c1.9844 0 3.832-0.98828 4.957-2.6406 1.0586-1.5586 1.2773-3.4336 0.60156-5.1406z"/>
 <path d="m57.328 34.922c0.44141-0.18359 0.65234-0.69141 0.46875-1.1328-0.57422-1.3828-0.011719-3.1602 1.2617-3.957 1.2695-0.79688 3.1133-0.53516 4.1094 0.58203 0.22656 0.25391 0.58203 0.35156 0.91016 0.25 0.32812-0.10156 0.55859-0.38672 0.60156-0.72656 0.21484-1.8125 2.3242-3.0117 4.2422-3.1211 2.8555-0.16406 5.7188 1.4023 7.1211 3.9023 1.3984 2.5 1.2383 5.7617-0.40234 8.1094-0.27344 0.39453-0.17578 0.93359 0.21484 1.207 0.14844 0.10547 0.32422 0.15625 0.49609 0.15625 0.27344 0 0.54297-0.12891 0.71484-0.37109 2.0117-2.8828 2.207-6.8789 0.49219-9.9453s-5.2188-4.9922-8.7344-4.7891c-2.1367 0.125-4.5078 1.2852-5.4648 3.2617-1.5703-0.9375-3.6484-0.98047-5.2227 0.011719-1.9883 1.2461-2.8398 3.9219-1.9414 6.0898 0.18359 0.44141 0.69141 0.65234 1.1328 0.46875z"/>
 <path d="m62.961 43.066c1.4961 1.2227 2.0469 3.4805 1.2812 5.2539-0.19141 0.44141 0.011718 0.94922 0.45312 1.1406 0.11328 0.050781 0.23047 0.070312 0.34375 0.070312 0.33594 0 0.65234-0.19531 0.79688-0.52344 1.0625-2.4609 0.30078-5.5938-1.7773-7.2852-1.7227-1.4062-4.2383-1.7305-6.3008-0.92188-0.63281-2.4453-2.9414-4.3828-5.5234-4.3984h-0.03125c-3.0312 0-5.707 2.6484-5.7305 5.6797-0.003906 0.48047 0.37891 0.87109 0.85938 0.875 0.47656 0.007813 0.87109-0.37891 0.875-0.85938 0.015625-2.0469 1.9648-3.9688 4.0156-3.9609 2.0469 0.011719 3.9766 1.9609 3.9688 4.0078 0 0.32422 0.17578 0.62109 0.46484 0.77344 0.28516 0.14844 0.63281 0.125 0.89844-0.058594 1.582-1.1055 3.9062-1.0156 5.4023 0.20312z"/>
 <path d="m54.516 52.223h-9.7852c-0.050781 0-0.10156 0.003906-0.14844 0.011719-1.5508 0.26953-3.2383-1.2383-3.6523-2.7148-0.42188-1.4883 0.47266-3.2969 1.9141-3.8672 1.4414-0.57031 3.3281 0.13672 4.043 1.5117 0.21875 0.42578 0.74609 0.58984 1.1719 0.37109 0.42578-0.21875 0.58984-0.74219 0.37109-1.1719-1.1367-2.1914-3.9258-3.2305-6.2188-2.3242-2.293 0.90625-3.6133 3.5781-2.9453 5.9492 0.57031 2.0312 2.6719 4.0117 4.9531 4.0117 0.19141 0 0.39062-0.011719 0.58594-0.042969h9.7148c0.48047 0 0.86719-0.39062 0.86719-0.86719 0-0.47656-0.39062-0.86719-0.86719-0.86719z"/>
 <path d="m83.816 62.879c-0.97266-0.82031-2.3711-1.1445-3.7344-0.86328-0.32031 0.066406-0.62891 0.16406-0.92188 0.28906-0.11328-1.8008-1.0352-3.6484-2.293-4.6719-1.9922-1.6211-5.0859-1.6484-7.1914-0.058593-2.0117 1.5156-2.9336 4.3242-2.2461 6.8281 0.125 0.46484 0.60547 0.73438 1.0664 0.60547 0.46484-0.125 0.73438-0.60156 0.60547-1.0664-0.49609-1.8047 0.18359-3.8984 1.6172-4.9805 1.4609-1.1016 3.6797-1.0938 5.0508 0.019531 1.2734 1.0352 2.1211 3.4922 1.4023 4.9844-0.066406 0.10156-0.125 0.21094-0.17969 0.32031-0.20703 0.41406-0.054688 0.91406 0.34375 1.1406 0.39844 0.23047 0.91016 0.10547 1.1602-0.28125 0.066406-0.10156 0.12891-0.21094 0.1875-0.32031 0.37109-0.54688 1.0039-0.95312 1.75-1.1055 0.84766-0.17188 1.6914 0.007812 2.2617 0.48828 0.53516 0.44922 0.83203 1.2695 0.80078 2.1914-0.03125 0.89062-0.35938 1.7109-0.87891 2.2031h-20.172c-0.48047 0-0.86719 0.39063-0.86719 0.86719s0.39062 0.86719 0.86719 0.86719h20.484c0.18359 0 0.36328-0.058594 0.51172-0.16797 1.0664-0.78125 1.7344-2.1719 1.7852-3.7148 0.050782-1.4688-0.46484-2.7734-1.418-3.5742z"/>
 <path d="m63.742 63.805c0.38672 0.28516 0.92969 0.19531 1.2148-0.19141 0.28516-0.38672 0.19531-0.92969-0.19141-1.2148-1.4336-1.0469-3.4961-1.0234-4.9023 0.058593-1.4102 1.0781-1.9648 3.0664-1.3242 4.7227 0.13281 0.34375 0.46094 0.55469 0.80859 0.55469 0.10156 0 0.21094-0.019531 0.3125-0.058594 0.44531-0.17188 0.67188-0.67578 0.49609-1.125-0.35547-0.92188-0.023438-2.1172 0.76172-2.7188 0.78516-0.60156 2.0234-0.61719 2.8242-0.035156z"/>
<text x="0.0" y="117.5" font-size="5.0" font-weight="bold" font-family="Arbeit Regular, Helvetica, Arial-Unicode, Arial, Sans-serif" fill="#000000">Created by jowy san</text><text x="0.0" y="122.5" font-size="5.0" font-weight="bold" font-family="Arbeit Regular, Helvetica, Arial-Unicode, Arial, Sans-serif" fill="#000000">from Noun Project</text></svg>