<svg xmlns="http://www.w3.org/2000/svg" version="1.1" viewBox="-5.0 -10.0 110.0 135.0">
 <path d="m75.34 46.219h-1.8398c-0.12891 0.003906-0.25391-0.023438-0.37109-0.078125-0.042968-0.015625-0.082031-0.035156-0.11719-0.0625-0.074219-0.027344-0.14062-0.078125-0.19141-0.13672l-0.10156-0.10156c-0.050781-0.054688-0.09375-0.11328-0.12891-0.17969l-0.058594-0.14844v-0.082031c-0.70703-2.8359-2.582-5.2383-5.1641-6.6094-2.582-1.3672-5.625-1.5781-8.3672-0.57031h-0.070312-0.16016-0.21094l-0.19922-0.058594-0.17969-0.058594-0.17969-0.042968-0.12891-0.089844-0.10156-0.17188c-0.039062-0.042969-0.070312-0.09375-0.097656-0.14844-1.6836-5.6055-5.957-10.062-11.492-11.98-5.5312-1.9141-11.645-1.0586-16.438 2.3086-4.7891 3.3672-7.668 8.8281-7.7422 14.684-0.003906 0.91406 0.066406 1.8242 0.21094 2.7305 0.003906 0.054687 0.003906 0.11328 0 0.16797 0.007812 0.070312 0.007812 0.14062 0 0.21094-0.015626 0.066407-0.039063 0.12891-0.070313 0.1875-0.019531 0.0625-0.042969 0.11719-0.070313 0.17188-0.046874 0.050782-0.09375 0.097656-0.14844 0.14062-0.039063 0.054688-0.082031 0.10156-0.13281 0.14062-0.058593 0.035156-0.12109 0.0625-0.1875 0.078125-0.054687 0.027344-0.10547 0.050781-0.16016 0.070313-4.7148 1.0938-8.582 4.4453-10.344 8.9492-1.7578 4.5078-1.1797 9.5938 1.5469 13.59 2.7266 3.9961 7.2461 6.3906 12.086 6.4023h50.609c3.9531 0.10156 7.7812-1.3945 10.613-4.1562 2.832-2.7578 4.4297-6.5469 4.4297-10.5s-1.5977-7.7422-4.4297-10.5c-2.832-2.7617-6.6602-4.2578-10.613-4.1562z"/>
<text x="0.0" y="117.5" font-size="5.0" font-weight="bold" font-family="Arbeit Regular, Helvetica, Arial-Unicode, Arial, Sans-serif" fill="#000000">Created by Annisa</text><text x="0.0" y="122.5" font-size="5.0" font-weight="bold" font-family="Arbeit Regular, Helvetica, Arial-Unicode, Arial, Sans-serif" fill="#000000">from Noun Project</text></svg>