<svg xmlns="http://www.w3.org/2000/svg" data-name="Layer 1" viewBox="0 0 100 125" x="0px" y="0px"><title>Helicopter6</title><path d="M13.771,49.851a1.405,1.405,0,0,0,1.054,1.025l27.624,6.578c1.168,2.321,5.468,9.982,11.349,10.025v6.037H46.92a1.424,1.424,0,1,0,0,2.848H82.447a4.958,4.958,0,0,0,2.15-.441c3.574-1.624,5.4-4.657,5.4-9.014a1.424,1.424,0,1,0-2.848-.014c0,3.247-1.182,5.283-3.731,6.436a2.174,2.174,0,0,1-.968.185H80.681l-3.332-6.051h1.31c.243.014,5.853.3,9.128-3.318,1.936-2.165,2.606-5.155,1.993-8.914a8.752,8.752,0,0,0-.854-2.563c-1.5-3.005-6.094-9.9-16.845-10.623l-1.2-3.488a1.4,1.4,0,0,0-1.339-.954H63.381l-1.125-2.692a1.431,1.431,0,0,0-1.31-.868h-.014l-2.72.028v-4.7H81.778a1.424,1.424,0,0,0,0-2.848H58.212V25.06a1.424,1.424,0,0,0-2.848,0v1.466H31.784a1.424,1.424,0,0,0,0,2.848h23.58V34.1l-1.78.014a1.4,1.4,0,0,0-1.3.869l-2.947,7.162a6.4,6.4,0,0,0-3.916,2.307H26.088L18.214,34.073a1.424,1.424,0,0,0-1.14-.569H11.421a1.432,1.432,0,0,0-1.381,1.78Zm62.212-4.287a16.319,16.319,0,0,1,10.394,8.373,5.71,5.71,0,0,1,.584,1.766,11.609,11.609,0,0,1,.157,2.833L78.688,57.2a3.2,3.2,0,0,1-2.7-3.161Zm-19.337,21.9H74.1l3.318,6.051H56.646Z"/><text x="0" y="115" fill="#000000" font-size="5px" font-weight="bold" font-family="'Helvetica Neue', Helvetica, Arial-Unicode, Arial, Sans-serif">Created by Annisa</text><text x="0" y="120" fill="#000000" font-size="5px" font-weight="bold" font-family="'Helvetica Neue', Helvetica, Arial-Unicode, Arial, Sans-serif">from the Noun Project</text></svg>