<svg xmlns="http://www.w3.org/2000/svg" xmlns:xlink="http://www.w3.org/1999/xlink" xml:space="preserve" version="1.1" style="shape-rendering:geometricPrecision;text-rendering:geometricPrecision;image-rendering:optimizeQuality;" viewBox="0 0 27777 34721.25" x="0px" y="0px" fill-rule="evenodd" clip-rule="evenodd"><defs><style type="text/css">
   
    .fil0 {fill:black;fill-rule:nonzero}
   
  </style></defs><g><g><path class="fil0" d="M15887 21113l-3997 0c-133,0 -242,110 -242,242l0 3133c0,132 109,242 242,242l3997 0c132,0 242,-110 242,-242l0 -3133c0,-132 -110,-242 -242,-242z"/><path class="fil0" d="M13781 3047c-5369,56 -9713,4389 -9788,9756l603 0c884,-1283 3448,-1306 4731,-788 483,194 862,467 1083,788l571 0c1247,-1555 4784,-1495 5814,0l572 0c1030,-1495 4807,-1461 5814,0l603 0c-77,-5503 -4529,-9756 -10003,-9756z"/><path class="fil0" d="M13287 20613l1202 0 9133 -6859c214,-160 -32,-477 -241,-321l-8346 6269c-200,172 -500,-48 -391,-292l2585 -5734c110,-244 -259,-404 -367,-165l-2746 6093c-109,152 -307,330 -455,0l-2746 -6093c-110,-244 -475,-74 -367,165l2584 5734c47,174 -24,567 -377,302l-8360 -6279c-213,-160 -449,165 -241,321l9133 6859z"/></g></g><text x="0" y="27792" fill="#000000" font-size="5px" font-weight="bold" font-family="'Helvetica Neue', Helvetica, Arial-Unicode, Arial, Sans-serif">Created by Andhika Pramanto</text><text x="0" y="27797" fill="#000000" font-size="5px" font-weight="bold" font-family="'Helvetica Neue', Helvetica, Arial-Unicode, Arial, Sans-serif">from the Noun Project</text></svg>