<svg xmlns="http://www.w3.org/2000/svg" version="1.1" viewBox="-5.0 -10.0 110.0 135.0">
 <path d="m39.457 63.699c0-1.6484 2.4375-2.25 3.7227-2.2344 0.86328-1.9453 4.6094-2.0273 6.25-0.89844 1.5898-0.84375 4.4766-0.76172 5.6562 0.69531 1.9922 0.015625 3.6016 1.0078 3.6016 2.2344 0 1.1914-1.5312 2.1719-3.457 2.2305-1.1406 1.3984-3.8398 1.5156-5.418 0.8125-1.582 1.2695-5.3086 1.2266-6.3555-0.61719-1.3477 0.078125-4-0.48047-4-2.2227z" fill-rule="evenodd"/>
 <path d="m67.152 58.543c-1.2188 1.6289-4.1445 1.8125-5.8945 0.96094-1.7461 1.5352-5.7891 1.4297-6.918-0.73047-1.6094 0.10156-4.3516-0.64844-4.3516-2.6367 0-1.8906 2.5195-2.668 4.0508-2.6484 0.92578-2.2656 4.9688-2.4336 6.8008-1.0664 1.7617-1.0195 4.8906-0.87891 6.1602 0.82422 5.0781 0.046875 5.2109 5.125 0.15234 5.3008z" fill-rule="evenodd"/>
 <path d="m63.957 63.055c0.99609-1.1367 2.9375-0.3125 2.957 1.1875-0.3125-1.457-2.4414-1.7617-2.9766-0.6875-1.0352-1.2227-2.5742-0.66797-2.9531 0.45312 0.1875-1.4922 2.1367-1.9648 2.9688-0.95312z" fill-rule="evenodd"/>
 <path d="m76.043 58.594c0.99219-1.1367 2.9375-0.3125 2.957 1.1914-0.3125-1.457-2.4453-1.7617-2.9766-0.69141-1.0352-1.2227-2.5742-0.66797-2.9531 0.45312 0.1875-1.4922 2.1367-1.9609 2.9727-0.95312z" fill-rule="evenodd"/>
 <path d="m34.184 66.586c0.99219-1.1367 2.9336-0.3125 2.957 1.1914-0.3125-1.457-2.4453-1.7617-2.9805-0.69141-1.0312-1.2188-2.5703-0.66797-2.9531 0.45312 0.19141-1.4922 2.1406-1.9609 2.9766-0.95312z" fill-rule="evenodd"/>
 <path d="m41.688 32.223c5.9375 0 10.75 4.8164 10.75 10.754s-4.8125 10.75-10.75 10.75-10.75-4.8125-10.75-10.75 4.8125-10.754 10.75-10.754z" fill-rule="evenodd"/>
 <path d="m36.773 61.688c-1.1367 1.3945-3.8359 1.5117-5.4102 0.80859-1.582 1.2695-5.3125 1.2266-6.3594-0.61719-1.3477 0.078125-4.0039-0.48438-4.0039-2.2266 0-1.6445 2.4375-2.25 3.7266-2.2344 0.86328-1.9414 4.6055-2.0234 6.25-0.89453 1.5859-0.84375 4.4805-0.76172 5.6602 0.69531 4.668 0.039062 4.793 4.3164 0.14062 4.4688z" fill-rule="evenodd"/>
<text x="0.0" y="117.5" font-size="5.0" font-weight="bold" font-family="Arbeit Regular, Helvetica, Arial-Unicode, Arial, Sans-serif" fill="#000000">Created by fernandosurya468</text><text x="0.0" y="122.5" font-size="5.0" font-weight="bold" font-family="Arbeit Regular, Helvetica, Arial-Unicode, Arial, Sans-serif" fill="#000000">from Noun Project</text></svg>