<svg xmlns="http://www.w3.org/2000/svg" xmlns:xlink="http://www.w3.org/1999/xlink" version="1.1" x="0px" y="0px" viewBox="0 0 100 125" enable-background="new 0 0 100 100" xml:space="preserve"><g><g><path d="M24.271,72.314H3.91v-8.872h20.361V72.314z M5.684,70.54h16.814v-5.323H5.684V70.54z"/></g><g><path d="M24.271,82.591H3.91v-8.872h20.361V82.591z M5.684,80.816h16.814v-5.323H5.684V80.816z"/></g><g><path d="M24.271,62.038H3.91v-8.871h20.361V62.038z M5.684,60.264h16.814v-5.322H5.684V60.264z"/></g><g><path d="M24.271,20.935H3.91v-1.221c0-2.445,1.99-4.436,4.436-4.436h11.49c2.445,0,4.436,1.99,4.436,4.436V20.935z M5.742,19.16    h16.697c-0.255-1.203-1.325-2.108-2.604-2.108H8.346C7.067,17.052,5.997,17.958,5.742,19.16z"/></g><g><path d="M19.836,89.652H8.346c-2.445,0-4.436-1.99-4.436-4.436v-1.222h20.361v1.222C24.271,87.662,22.281,89.652,19.836,89.652z     M5.742,85.77c0.254,1.203,1.325,2.108,2.604,2.108h11.49c1.278,0,2.35-0.905,2.604-2.108H5.742z"/></g><g><path d="M24.271,31.21H3.91v-8.872h20.361V31.21z M5.684,29.436h16.814v-5.323H5.684V29.436z"/></g><g><path d="M24.271,51.763H3.91v-8.872h20.361V51.763z M5.684,49.988h16.814v-5.323H5.684V49.988z"/></g><g><path d="M24.271,41.486H3.91v-8.872h20.361V41.486z M5.684,39.712h16.814v-5.323H5.684V39.712z"/></g></g><g><g><path d="M96.09,72.314H75.728v-8.872H96.09V72.314z M77.502,70.54h16.814v-5.323H77.502V70.54z"/></g><g><path d="M96.09,82.591H75.728v-8.872H96.09V82.591z M77.502,80.816h16.814v-5.323H77.502V80.816z"/></g><g><path d="M96.09,62.038H75.728v-8.871H96.09V62.038z M77.502,60.264h16.814v-5.322H77.502V60.264z"/></g><g><path d="M96.09,20.935H75.728v-1.221c0-2.445,1.989-4.436,4.436-4.436h11.491c2.446,0,4.436,1.99,4.436,4.436V20.935z     M77.561,19.16h16.697c-0.256-1.203-1.325-2.108-2.604-2.108H80.163C78.886,17.052,77.816,17.958,77.561,19.16z"/></g><g><path d="M91.654,89.652H80.163c-2.446,0-4.436-1.99-4.436-4.436v-1.222H96.09v1.222C96.09,87.662,94.101,89.652,91.654,89.652z     M77.561,85.77c0.255,1.203,1.324,2.108,2.603,2.108h11.491c1.278,0,2.349-0.905,2.604-2.108H77.561z"/></g><g><path d="M96.09,31.21H75.728v-8.872H96.09V31.21z M77.502,29.436h16.814v-5.323H77.502V29.436z"/></g><g><path d="M96.09,51.763H75.728v-8.872H96.09V51.763z M77.502,49.988h16.814v-5.323H77.502V49.988z"/></g><g><path d="M96.09,41.486H75.728v-8.872H96.09V41.486z M77.502,39.712h16.814v-5.323H77.502V39.712z"/></g></g><g><polygon points="57.878,36.466 53.029,36.466 53.029,10.347 46.971,10.347 46.971,36.466 42.122,36.466 34.244,50.111    42.122,63.755 57.878,63.755 65.756,50.111  "/></g><g><path d="M73.954,76.419H26.046V28.512H45.64v6.624h-4.286l-8.646,14.976l8.646,14.975h17.293l8.646-14.975l-8.646-14.976h-4.285   v-6.624h19.593V76.419z M27.82,74.645H72.18V30.286H56.135v3.075h3.536l9.67,16.75l-9.67,16.748H40.33l-9.672-16.748l9.672-16.75   h3.535v-3.075H27.82V74.645z"/></g><text x="0" y="115" fill="#000000" font-size="5px" font-weight="bold" font-family="'Helvetica Neue', Helvetica, Arial-Unicode, Arial, Sans-serif">Created by Bakunetsu Kaito</text><text x="0" y="120" fill="#000000" font-size="5px" font-weight="bold" font-family="'Helvetica Neue', Helvetica, Arial-Unicode, Arial, Sans-serif">from the Noun Project</text></svg>