<svg xmlns="http://www.w3.org/2000/svg" version="1.1" viewBox="-5.0 -10.0 110.0 135.0">
 <path d="m55.441 29.598-9.1406-3.7891 1.0625-2.5703 9.0039 3.7305c-0.47656 0.80859-0.79297 1.6992-0.92578 2.6289zm23.332 10.75c-0.39844-1.7461-1.957-2.9805-3.75-2.9727h-34.773c-1.6602-0.003906-3.2578 0.64062-4.457 1.793l-7.7539 7.4453h52.199zm12.805 26.422-4.9648-14.801c-0.57422-1.707-2.1719-2.8555-3.9727-2.8555h-60.246c-4.2383-0.007812-8.0625 2.5469-9.6719 6.4688l-4.1797 10.129c-0.41797 1.0117-0.30469 2.1602 0.30078 3.0703 0.60547 0.90625 1.625 1.4531 2.7188 1.457h0.54688c-0.58984-1.5312-0.39062-3.2539 0.53906-4.6055 0.92578-1.3516 2.457-2.1602 4.0977-2.1602h67.145c1.6367 0 3.1719 0.80859 4.0977 2.1602 0.92578 1.3516 1.125 3.0742 0.53516 4.6055h0.55859c0.84766 0 1.6406-0.41016 2.1367-1.0977s0.62891-1.5703 0.35938-2.3711zm-5.4883 0.55078h-0.003906c0.43359 0.82422 0.35547 1.8242-0.19531 2.5703l-6.9336 9.5898c-1.5117 2.0859-3.9336 3.3242-6.5117 3.3242h-43.059c-2.3633 0.003906-4.6094-1.0391-6.1367-2.8477l-8.3906-9.9219c-0.62109-0.73438-0.75781-1.7617-0.35156-2.6328 0.40234-0.87109 1.2773-1.4297 2.2383-1.4297h67.145c0.92969-0.007812 1.7812 0.51172 2.1953 1.3477zm-51.16 7.0703c0-2.5938-1.5625-4.9297-3.957-5.918-2.3906-0.99219-5.1484-0.44531-6.9805 1.3867-1.832 1.832-2.3789 4.5898-1.3867 6.9844 0.99219 2.3906 3.3281 3.9531 5.918 3.9531 3.5352-0.003906 6.4023-2.8711 6.4062-6.4062zm14.793 0c0-2.5938-1.5625-4.9297-3.957-5.918-2.3945-0.99219-5.1484-0.44531-6.9805 1.3867-1.832 1.832-2.3789 4.5898-1.3906 6.9844 0.99219 2.3906 3.3281 3.9531 5.9219 3.9531 3.5352-0.007813 6.3984-2.8711 6.4023-6.4062zm14.793 0h-0.003906c0-2.5938-1.5586-4.9297-3.9531-5.918-2.3945-0.99219-5.1523-0.44531-6.9844 1.3867s-2.3789 4.5898-1.3867 6.9844c0.99219 2.3906 3.3281 3.9531 5.918 3.9531 3.5352-0.007813 6.3984-2.8711 6.4023-6.4062zm14.793 0h-0.003906c0-2.5938-1.5625-4.9297-3.957-5.918-2.3906-0.99219-5.1484-0.44531-6.9805 1.3867-1.832 1.832-2.3789 4.5898-1.3867 6.9805 0.99219 2.3945 3.3281 3.957 5.918 3.957 3.5352-0.007813 6.3945-2.875 6.3984-6.4062zm-12.031-43.766c0-2.5977-2.1055-4.707-4.707-4.707-2.5977 0-4.7031 2.1094-4.7031 4.707v4.25h9.4141zm-23.965 39.859c-1.5781 0-3.0039 0.94922-3.6094 2.4102-0.60547 1.4609-0.26953 3.1406 0.84766 4.2578 1.1172 1.1172 2.7969 1.4531 4.2578 0.84766 1.4609-0.60547 2.4102-2.0312 2.4102-3.6094-0.003906-2.1562-1.75-3.9023-3.9062-3.9062zm14.793 0c-1.582 0-3.0039 0.94922-3.6094 2.4102-0.60547 1.4609-0.26953 3.1406 0.84766 4.2578 1.1172 1.1172 2.7969 1.4531 4.2539 0.84766 1.4609-0.60547 2.4141-2.0312 2.4141-3.6094-0.003907-2.1562-1.7539-3.9062-3.9102-3.9062zm-29.582 0c-1.582 0-3.0078 0.94922-3.6094 2.4102-0.60547 1.4609-0.27344 3.1406 0.84375 4.2578 1.1172 1.1172 2.7969 1.4531 4.2578 0.84766s2.4102-2.0312 2.4102-3.6094c0-2.1562-1.7461-3.9023-3.9023-3.9062zm2.3398-51.734 13.367 5.5312 0.039062-0.10547 0.55078-1.3242-13.363-5.5312c-0.17188-0.078124-0.35938-0.12109-0.55078-0.125-0.30078-0.011718-0.57812 0.16797-0.6875 0.44531-0.074219 0.17188-0.23047 0.74219 0.64453 1.1094zm42.027 51.734c-1.5781 0-3.0039 0.95312-3.6094 2.4102-0.60156 1.4609-0.26953 3.1406 0.84766 4.2578 1.1172 1.1172 2.7969 1.4531 4.2578 0.84766 1.4609-0.60547 2.4102-2.0312 2.4102-3.6094 0-2.1562-1.75-3.9023-3.9062-3.9062z"/>
<text x="0.0" y="117.5" font-size="5.0" font-weight="bold" font-family="Arbeit Regular, Helvetica, Arial-Unicode, Arial, Sans-serif" fill="#000000">Created by krisna arga muria</text><text x="0.0" y="122.5" font-size="5.0" font-weight="bold" font-family="Arbeit Regular, Helvetica, Arial-Unicode, Arial, Sans-serif" fill="#000000">from Noun Project</text></svg>